<?xml version="1.0" encoding="UTF-8" standalone="no"?>
<!-- Created with Inkscape (http://www.inkscape.org/) -->

<svg
   xmlns:dc="http://purl.org/dc/elements/1.1/"
   xmlns:cc="http://creativecommons.org/ns#"
   xmlns:rdf="http://www.w3.org/1999/02/22-rdf-syntax-ns#"
   xmlns:svg="http://www.w3.org/2000/svg"
   xmlns="http://www.w3.org/2000/svg"
   xmlns:sodipodi="http://sodipodi.sourceforge.net/DTD/sodipodi-0.dtd"
   xmlns:inkscape="http://www.inkscape.org/namespaces/inkscape"
   width="188.36525mm"
   height="188.36525mm"
   viewBox="0 0 188.36525 188.36525"
   version="1.1"
   id="svg8"
   inkscape:version="0.92.4 (5da689c313, 2019-01-14)"
   sodipodi:docname="wiR-Symbol-white.svg">
  <defs
     id="defs2">
    <style
       id="style844"
       type="text/css"><![CDATA[
    .outline { stroke:none; stroke-width:0 }
  ]]></style>
    <g
       id="heart">
      <path
         id="path846"
         d="M 0,200 V 0 h 200 a 100,100 90 0 1 0,200 100,100 90 0 1 -200,0 z"
         inkscape:connector-curvature="0" />
    </g>
    <style
       id="style5154"
       type="text/css"><![CDATA[
    .outline { stroke:none; stroke-width:0 }
  ]]></style>
    <g
       id="heart-6">
      <path
         id="path5156"
         d="M 0,200 V 0 h 200 a 100,100 90 0 1 0,200 100,100 90 0 1 -200,0 z"
         inkscape:connector-curvature="0" />
    </g>
  </defs>
  <sodipodi:namedview
     id="base"
     pagecolor="#ffffff"
     bordercolor="#666666"
     borderopacity="1.0"
     inkscape:pageopacity="0.0"
     inkscape:pageshadow="2"
     inkscape:zoom="0.72871773"
     inkscape:cx="212.91055"
     inkscape:cy="262.32262"
     inkscape:document-units="mm"
     inkscape:current-layer="g1943"
     showgrid="false"
     inkscape:snap-global="true"
     showguides="true"
     inkscape:guide-bbox="true"
     inkscape:window-width="1920"
     inkscape:window-height="1017"
     inkscape:window-x="-8"
     inkscape:window-y="32"
     inkscape:window-maximized="1"
     inkscape:snap-object-midpoints="true"
     inkscape:snap-midpoints="true"
     inkscape:object-nodes="true"
     inkscape:snap-bbox="false"
     inkscape:bbox-nodes="false"
     inkscape:snap-nodes="true"
     inkscape:snap-grids="true"
     inkscape:snap-bbox-edge-midpoints="false"
     inkscape:lockguides="true"
     inkscape:snap-others="true"
     inkscape:bbox-paths="true"
     inkscape:object-paths="false"
     fit-margin-top="0"
     fit-margin-left="0"
     fit-margin-right="0"
     fit-margin-bottom="0"
     inkscape:showpageshadow="false"
     borderlayer="true">
    <sodipodi:guide
       position="103.71183,215.90627"
       orientation="1,0"
       id="guide5216"
       inkscape:locked="true" />
    <sodipodi:guide
       position="103.71183,207.61276"
       orientation="0,1"
       id="guide5223"
       inkscape:locked="true" />
    <sodipodi:guide
       position="103.71183,269.41424"
       orientation="0,1"
       id="guide5242"
       inkscape:locked="true" />
    <sodipodi:guide
       position="103.71183,145.79347"
       orientation="0,1"
       id="guide1455"
       inkscape:locked="true" />
    <sodipodi:guide
       position="103.89891,81.068622"
       orientation="0,1"
       id="guide1459"
       inkscape:locked="true" />
  </sodipodi:namedview>
  <metadata
     id="metadata5">
    <rdf:RDF>
      <cc:Work
         rdf:about="">
        <dc:format>image/svg+xml</dc:format>
        <dc:type
           rdf:resource="http://purl.org/dc/dcmitype/StillImage" />
        <dc:title></dc:title>
      </cc:Work>
    </rdf:RDF>
  </metadata>
  <g
     inkscape:groupmode="layer"
     id="g1943"
     inkscape:label="Komplett"
     style="display:inline"
     transform="translate(-9.529134,-27.566276)">
    <path
       style="display:inline;opacity:1;fill:#ffffff;fill-opacity:1;fill-rule:nonzero;stroke:none;stroke-width:12.96168327;stroke-linecap:round;stroke-miterlimit:4;stroke-dasharray:none;stroke-dashoffset:0;stroke-opacity:1"
       d="M 355.96289 0 C 159.45751 0 -8.9999997e-06 159.4634 0 355.96875 C 0 552.4741 159.45753 711.93164 355.96289 711.93164 C 552.46811 711.93164 711.93164 552.4741 711.93164 355.96875 C 711.93164 159.4634 552.46811 9.2518585e-17 355.96289 0 z M 355.96289 16.763672 C 475.84571 16.763662 572.85352 113.77136 572.85352 233.6543 C 572.85352 319.38261 523.23936 393.40263 451.13477 428.62695 L 390.73242 291.97266 C 411.30895 279.73965 423.94201 257.59249 423.99805 233.6543 C 423.99792 196.08173 393.53937 165.62318 355.9668 165.62305 C 318.39423 165.62318 287.93568 196.08173 287.93555 233.6543 C 287.97845 257.60017 300.60729 279.76019 321.1875 292.00195 L 260.79492 428.63086 C 188.68996 393.40748 139.08008 319.38447 139.08008 233.6543 C 139.08009 113.77136 236.07993 16.763672 355.96289 16.763672 z M 60.601562 185.69727 C 82.083324 189.75589 103.5651 193.81448 125.04688 197.87305 C 124.70323 200.10429 124.38927 202.34615 124.10938 204.59766 C 124.10028 204.59681 124.09113 204.59655 124.08203 204.5957 L 60.601562 185.69727 z M 651.33008 185.69727 L 587.84961 204.5957 C 587.84051 204.59655 587.83136 204.59681 587.82227 204.59766 C 587.54227 202.34562 587.22853 200.10481 586.88477 197.87305 C 608.36666 193.8151 629.84835 189.75606 651.33008 185.69727 z M 46.636719 212.58398 C 72.002062 214.93954 97.367336 217.29597 122.73242 219.6543 C 122.57789 222.26251 122.46845 224.88325 122.40039 227.51367 C 119.36393 227.53212 116.32747 227.5499 113.29102 227.56836 L 46.636719 212.58398 z M 665.29492 212.58398 L 598.64062 227.56836 C 595.60418 227.54989 592.56771 227.53213 589.53125 227.51367 C 589.46315 224.88329 589.35376 222.26247 589.19922 219.6543 C 614.56424 217.29519 639.92963 214.94013 665.29492 212.58398 z M 122.48633 242.63086 C 122.60122 245.66481 122.77802 248.68213 123.00781 251.68555 C 116.10154 252.44837 109.19534 253.21184 102.28906 253.97461 L 34.205078 243.16992 C 63.632158 242.98984 93.059234 242.80978 122.48633 242.63086 z M 589.44531 242.63086 C 618.8724 242.8095 648.29948 242.98998 677.72656 243.16992 L 609.64258 253.97461 C 602.7363 253.21184 595.8301 252.44835 588.92383 251.68555 C 589.15362 248.6822 589.33042 245.66474 589.44531 242.63086 z M 124.64648 266.71484 C 125.24843 270.95535 125.96415 275.15988 126.79102 279.32422 C 115.47719 281.97189 104.1634 284.61975 92.849609 287.26758 L 24.119141 277.81836 C 57.628272 274.11737 91.137445 270.41662 124.64648 266.71484 z M 587.28516 266.71484 C 620.79419 270.41677 654.30338 274.11735 687.8125 277.81836 L 619.08203 287.26758 C 607.76823 284.61979 596.45445 281.97191 585.14062 279.32422 C 585.96752 275.15986 586.68319 270.95537 587.28516 266.71484 z M 130.2207 294.04883 C 131.81481 300.01187 133.63122 305.88474 135.67578 311.65039 C 119.49669 317.9992 103.31755 324.34789 87.138672 330.69727 L 16.949219 320.55664 C 54.706367 311.72066 92.463472 302.88444 130.2207 294.04883 z M 581.70898 294.04883 C 619.46786 302.88299 657.226 311.72034 694.98438 320.55664 L 624.79297 330.69922 C 608.61327 324.34965 592.43399 317.999 576.25391 311.65039 C 578.29859 305.88476 580.11477 300.01185 581.70898 294.04883 z M 334.96094 298.24023 C 339.33001 299.68927 343.83486 300.69115 348.40625 301.23047 L 348.40625 428.56055 C 340.97573 421.2292 328.34713 412.01562 311.65625 412.01562 C 295.81507 412.01562 283.608 420.38488 276.05273 431.50977 C 295.68879 387.08658 315.32476 342.66336 334.96094 298.24023 z M 376.98438 298.26562 C 396.61752 342.68148 416.25018 387.09757 435.88281 431.51367 C 428.32773 420.38686 416.11842 412.01562 400.27539 412.01562 C 383.58451 412.01562 370.95588 421.2292 363.52539 428.56055 L 363.52539 301.18164 C 368.0988 300.66738 372.60823 299.69036 376.98438 298.26562 z M 141.19727 325.72266 C 143.98738 332.21396 147.0603 338.5558 150.40625 344.72852 C 130.03996 356.65035 109.67447 368.57356 89.308594 380.49609 L 15.652344 374.99219 C 57.500646 358.56901 99.348988 342.14592 141.19727 325.72266 z M 570.73438 325.72266 C 612.58319 342.14614 654.43227 358.56907 696.28125 374.99219 L 622.625 380.49609 C 602.25836 368.5731 581.89209 356.64947 561.52539 344.72656 C 564.87125 338.55411 567.94432 332.21365 570.73438 325.72266 z M 553.89062 357.77539 C 598.37191 383.81593 642.85414 409.85485 687.33594 435.89453 L 607.78516 438.86719 C 584.68483 419.05997 561.58522 399.2519 538.48438 379.44531 C 544.0161 372.53245 549.1599 365.29669 553.89062 357.77539 z M 158.03906 357.77734 C 162.77003 365.29914 167.9152 372.53401 173.44727 379.44727 C 150.3347 399.26359 127.22345 419.08153 104.11133 438.89844 L 24.544922 435.92578 C 69.043022 409.8764 113.5406 383.82612 158.03906 357.77734 z M 528.66406 390.94141 C 573.22339 429.14845 617.78376 467.35428 662.34375 505.56055 L 572.67188 503.5957 C 549.8756 473.76892 527.07979 443.94178 504.2832 414.11523 C 512.95379 406.97937 521.10424 399.23479 528.66406 390.94141 z M 183.26562 390.94336 C 190.82586 399.23742 198.97724 406.98086 207.64844 414.11719 C 184.85229 443.94395 162.05619 473.77095 139.25977 503.59766 L 49.587891 505.5625 C 94.147122 467.35611 138.70644 429.14979 183.26562 390.94336 z M 492.30859 423.3457 C 532.35142 475.73184 572.38973 528.12144 612.42969 580.50977 L 510.97266 564 C 493.27821 523.97024 475.58397 483.9404 457.89062 443.91016 C 469.98194 438.03169 481.49052 431.13829 492.30859 423.3457 z M 219.62109 423.34766 C 230.43984 431.14079 241.94878 438.03342 254.04102 443.91211 C 236.34621 483.94236 218.65306 523.97334 200.95898 564.00391 L 99.5 580.51367 C 139.54006 528.12477 179.58174 475.73711 219.62109 423.34766 z M 443.31055 448.31836 C 458.38479 482.42187 473.45927 516.52526 488.5332 550.62891 C 448.9723 571.55338 403.86944 583.41895 355.96875 583.41992 C 355.97915 583.40782 444.58398 479.94296 444.58398 458.76172 C 444.58398 455.35211 444.14848 451.83017 443.31055 448.31836 z M 268.61914 448.32812 C 267.78273 451.83672 267.34766 455.35525 267.34766 458.76172 C 267.34766 479.92361 355.76561 583.18598 355.9375 583.38672 C 355.93766 583.3869 355.96474 583.41992 355.96484 583.41992 L 355.96289 583.41992 C 308.06214 583.41984 262.95869 571.55641 223.39844 550.63281 C 238.47138 516.53097 253.54555 482.42968 268.61914 448.32812 z M 494.93359 565.10742 L 531.63672 648.14453 C 480.342 679.03533 420.24186 696.8125 355.96289 696.8125 C 291.68539 696.8125 231.58763 679.03669 180.29492 648.14648 L 216.99805 565.10938 C 258.54377 586.91901 305.81608 599.27922 355.96289 599.2793 C 406.11122 599.2793 453.38597 586.9184 494.93359 565.10742 z "
       transform="matrix(0.26458333,0,0,0.26458333,9.529134,27.566276)"
       id="path1899" />
  </g>
</svg>
